{"title":"Hemingway.and.Gellhorn.2012.BRRip.XviD.AC3.HORiZON-ArtSubs","uid":8299755,"size":2108004997,"categoryP":"video","categoryS":"movies","magnet":"?xt=urn:btih:191bad9b5c3752300ae7cc09c110975fc48b4372&amp;dn=Hemingway.and.Gellhorn.2012.BRRip.XviD.AC3.HORiZON-ArtSubs&amp;tr=udp%3A%2F%2Ftracker.openbittorrent.com%3A80&amp;tr=udp%3A%2F%2Fopen.demonii.com%3A1337&amp;tr=udp%3A%2F%2Ftracker.coppersurfer.tk%3A6969&amp;tr=udp%3A%2F%2Fexodus.desync.com%3A6969","seeders":3,"leechers":0,"uploader":"lletaif","files":2,"time":1364240653,"description":"Title:\nHemingway and Gellhorn\n\nCountry:\nUSA/2012\n\nLanguage:\nEnglish\n\nSubtitle:\nEnglish (srt)\n\nDirector:\nPhilip Kaufman\n\nWriters:\nJerry Stahl, Barbara Turner\n\nStars:\nNicole Kidman, Clive Owen, David Strathairn\n\nSynopsis:\nA drama centered on the romance between Ernest Hemingway and WWII correspondent Martha Gellhorn, Hemingway's inspiration for For Whom the Bell Tolls and the only woman who ever asked for a divorce from the writer. \n\nTrivia:\n\n* Official Selection Cannes Film Festival 2012\n\n* Nominated Golden Globe 2012:\n - Best Performance by an Actor in a Mini-Series or a Motion Picture Made for Television:  Clive Owen\n\n - Best Performance by an Actress in a Mini-Series or a Motion Picture Made for Television:  Nicole Kidman\n\nImdb: &lt;a href=&quot;\nhttp://www.imdb.com/title/tt0423455/&quot; rel=&quot;nofollow&quot; target=&quot;_NEW&quot;&gt;\nhttp://www.imdb.com/title/tt0423455/&lt;/a&gt;\n\nTrailer: &lt;a href=&quot;\nhttp://outnow.ch/Movies/2012/HemingwayAndGellhorn/Trailers/trailer1_en&quot; rel=&quot;nofollow&quot; target=&quot;_NEW&quot;&gt;\nhttp://outnow.ch/Movies/2012/HemingwayAndGellhorn/Trailers/trailer1_en&lt;/a&gt;\n \n\n\nMedia Info:\n\nGeneral\nComplete name                           :Hemingway.and.Gellhorn.2012.BRRip.XviD.AC3.HORiZON-ArtSubs\nFormat                                   : AVI\nFormat/Info                              : Audio Video Interleave\nFormat profile                           : OpenDML\nFile size                                : 1.96 GiB\nDuration                                 : 2h 34mn\nOverall bit rate                         : 1 815 Kbps\nWriting application                      : Lavf52.94.0\n\nVideo\nID                                       : 0\nFormat                                   : MPEG-4 Visual\nFormat profile                           : Simple@L3\nFormat settings, BVOP                    : No\nFormat settings, QPel                    : No\nFormat settings, GMC                     : No warppoints\nFormat settings, Matrix                  : Default (H.263)\nCodec ID                                 : XVID\nCodec ID/Hint                            : XviD\nDuration                                 : 2h 34mn\nBit rate                                 : 1 580 Kbps\nWidth                                    : 1 280 pixels\nHeight                                   : 720 pixels\nDisplay aspect ratio                     : 16:9\nFrame rate                               : 23.976 fps\nColor space                              : YUV\nChroma subsampling                       : 4:2:0\nBit depth                                : 8 bits\nScan type                                : Progressive\nCompression mode                         : Lossy\nBits/(Pixel*Frame)                       : 0.072\nStream size                              : 1.71 GiB (87%)\nWriting library                          : XviD 1.2.1 (UTC 2008-12-04)\n\nAudio\nID                                       : 1\nFormat                                   : AC-3\nFormat/Info                              : Audio Coding 3\nMode extension                           : CM (complete main)\nFormat settings, Endianness              : Big\nCodec ID                                 : 2000\nDuration                                 : 2h 34mn\nBit rate mode                            : Constant\nBit rate                                 : 224 Kbps\nChannel(s)                               : 2 channels\nChannel positions                        : Front: L R\nSampling rate                            : 48.0 KHz\nBit depth                                : 16 bits\nCompression mode                         : Lossy\nStream size                              : 248 MiB (12%)\nAlignment                                : Aligned on interleaves\nInterleave, duration                     : 32 ms (0.77 video frame)\nInterleave, preload duration             : 32 ms\n\n","torrent":{"xt":"urn:btih:191bad9b5c3752300ae7cc09c110975fc48b4372","amp;dn":"Hemingway.and.Gellhorn.2012.BRRip.XviD.AC3.HORiZON-ArtSubs","amp;tr":["udp%3A%2F%2Ftracker.openbittorrent.com%3A80","udp%3A%2F%2Fopen.demonii.com%3A1337","udp%3A%2F%2Ftracker.coppersurfer.tk%3A6969","udp%3A%2F%2Fexodus.desync.com%3A6969"],"infoHash":"191bad9b5c3752300ae7cc09c110975fc48b4372","infoHashBuffer":{"type":"Buffer","data":[25,27,173,155,92,55,82,48,10,231,204,9,193,16,151,95,196,139,67,114]},"announce":[],"urlList":[]}}